<?xml version="1.0" ?><svg viewBox="0 0 64 64" xmlns="http://www.w3.org/2000/svg"><g id="outling-cut"><path d="M25.356,7.223A1,1,0,1,0,27.079,8.24,5.949,5.949,0,0,1,32,5c3.379,0,6,3.763,6,7v5H36V11a4,4,0,0,0-8,0v2a1,1,0,0,0,.293.707L29.586,15l-2,2H26V12a6.6,6.6,0,0,1,.037-.687,1,1,0,0,0-1.988-.212A8.462,8.462,0,0,0,24,12v5h-.353a7.992,7.992,0,0,0-7.384,4.925l-7.2,18.717a1,1,0,0,0,.563,1.287l5,2a1,1,0,0,0,1.3-.548L17.315,40c.01-.021.026-.038.035-.06s0-.027.007-.041L21,31.055V36a1,1,0,0,0,0,2V51.159a1,1,0,0,0,2,0V48h3a1,1,0,0,0,.707-.293l2-2A1,1,0,0,0,29,45V41a1,1,0,0,0-1-1H23V38h2a1,1,0,0,0,0-2H23V26a1,1,0,0,0-1.925-.381L15.856,38.294l-1.662-.644a1,1,0,0,0-.722,1.866l1.623.628-.643,1.56-3.165-1.266,6.831-17.767A5.987,5.987,0,0,1,23.647,19H27v5a1,1,0,0,0,2,0V20.852l2,2.5V36H29a1,1,0,0,0,0,2h2V59H23V54.5a1,1,0,0,0-2,0V60a1,1,0,0,0,1,1H42a1,1,0,0,0,.3-.048c.018-.006.033-.017.05-.024a.825.825,0,0,0,.08-.037.983.983,0,0,0,.234-.158.472.472,0,0,0,.048-.041.973.973,0,0,0,.187-.277c.011-.024.018-.049.027-.074a1.018,1.018,0,0,0,.046-.124l2-9A1,1,0,0,0,44,50H43V31.055L46.643,39.9c.005.014,0,.028.007.041s.025.039.035.06l1.39,3.377a1,1,0,0,0,1.3.548l5-2a1,1,0,0,0,.563-1.287l-6.921-18a1,1,0,1,0-1.867.716l6.567,17.08L49.548,41.7l-.643-1.56,1.623-.628a1,1,0,0,0-.722-1.866l-1.662.644L42.925,25.619A1,1,0,0,0,41,26v4H36a1,1,0,0,0,0,2h5v8H36a1,1,0,0,0-1,1v4a1,1,0,0,0,.293.707l2,2A1,1,0,0,0,38,48h3v2H33V23.352l2-2.5V24a1,1,0,0,0,2,0V19h3.353a5.96,5.96,0,0,1,4.2,1.714,1,1,0,1,0,1.4-1.43A7.961,7.961,0,0,0,40.353,17H40V12c0-4.248-3.421-9-8-9A7.916,7.916,0,0,0,25.356,7.223ZM27,42v2.586L25.586,46H23V42Zm11.414,4L37,44.586V42h4v4ZM31.707,14.293,30,12.586V11a2,2,0,0,1,4,0v7.9l-2,2.5-2.66-3.325,2.367-2.367A1,1,0,0,0,31.707,14.293ZM42.753,52,41.4,58.11,34.6,52Zm-3.359,7H33V53.245Z"/><path d="M29,27a1,1,0,0,0-.08-.38.911.911,0,0,0-.22-.33.628.628,0,0,0-.15-.12.568.568,0,0,0-.17-.09.609.609,0,0,0-.191-.06.852.852,0,0,0-.389,0,.636.636,0,0,0-.18.06.782.782,0,0,0-.181.09,1.7,1.7,0,0,0-.149.12,1.032,1.032,0,0,0-.21.33A.99.99,0,0,0,28,28a1.007,1.007,0,0,0,1-1Z"/><path d="M12.62,21.08a.9.9,0,0,0-.54.54.942.942,0,0,0,0,.76,1.169,1.169,0,0,0,.21.33,1.014,1.014,0,0,0,1.42,0,1.169,1.169,0,0,0,.21-.33.943.943,0,0,0,0-.76.933.933,0,0,0-.21-.33A1,1,0,0,0,12.62,21.08Z"/><path d="M35.29,26.29a1.032,1.032,0,0,0-.21.33A.838.838,0,0,0,35,27a.99.99,0,0,0,1.38.92,1.169,1.169,0,0,0,.33-.21.99.99,0,0,0,.21-1.09,1.032,1.032,0,0,0-.21-.33A1.047,1.047,0,0,0,35.29,26.29Z"/><path d="M14,20a1,1,0,0,0,.929-.629A6.92,6.92,0,0,1,21.385,15H22a1,1,0,0,0,0-2h-.615a8.911,8.911,0,0,0-8.314,5.629,1,1,0,0,0,.558,1.3A.986.986,0,0,0,14,20Z"/></g></svg>